<svg version="1" xmlns="http://www.w3.org/2000/svg" width="933.333" height="933.333" viewBox="0 0 700.000000 700.000000"><path d="M120.5.7C67.6 5.7 23.1 40.9 6.9 90.3 0 111.3.5 92.4.5 350c0 216.2.1 233.1 1.7 241.6 9 47.7 43.1 86.9 87.8 101.2 11.8 3.8 17.1 4.9 28.5 6.2 12.1 1.3 275.9 1.3 288 0 11.4-1.3 16.7-2.4 28.5-6.2 35.2-11.3 66.4-40.3 79.7-74l2.6-6.8h26.1c28.3 0 38.8-1.1 53.6-5.4 52.4-15.2 90.4-57.6 100.6-112.1 1.8-9.5 1.9-17.4 1.9-145v-135l-2.3-11.3c-11.5-57-53-99.4-109.7-112.4-7.7-1.8-13.4-2.1-39.6-2.5l-30.7-.5-2.6-6.7c-13.1-33.5-44.5-62.6-79.9-74.2C414.4.3 424 .6 267 .5 188.6.4 122.7.5 120.5.7zm455.2 109.9c47.7 7 85.8 41.4 99.2 89.4l2.6 9.5.3 136.4c.3 148.4.4 143.9-5.3 161.6-10.1 31.3-33.5 57.7-63.8 72-10.8 5.1-20.5 8-33.7 10-14.1 2.2-260.9 2.2-275 0-13.2-2-22.9-4.9-33.7-10-32.8-15.5-56.2-43.6-66.2-79.5l-2.6-9.5v-281l2.6-9.5c13.3-47.7 51.1-82 98.5-89.4 7.2-1.1 33.5-1.4 137.8-1.5 111.6-.1 130.2.1 139.3 1.5z"/><path d="M339 350v142h208v-65H427v-44h109v-66H427v-44h120v-65H339v142z"/></svg>